<?xml version="1.0" encoding="UTF-8" standalone="no"?>
<!-- Generator: Adobe Illustrator 15.0.0, SVG Export Plug-In . SVG Version: 6.00 Build 0)  -->

<svg
   xmlns:dc="http://purl.org/dc/elements/1.1/"
   xmlns:cc="http://creativecommons.org/ns#"
   xmlns:rdf="http://www.w3.org/1999/02/22-rdf-syntax-ns#"
   xmlns:svg="http://www.w3.org/2000/svg"
   xmlns="http://www.w3.org/2000/svg"
   xmlns:sodipodi="http://sodipodi.sourceforge.net/DTD/sodipodi-0.dtd"
   xmlns:inkscape="http://www.inkscape.org/namespaces/inkscape"
   version="1.1"
   id="Layer_1"
   x="0px"
   y="0px"
   width="612px"
   height="792px"
   viewBox="0 0 612 792"
   style="enable-background:new 0 0 612 792;"
   xml:space="preserve"
   inkscape:version="0.48+devel+osxmenu r12779"
   sodipodi:docname="activityItem-arrange-paragraphs.svg"><metadata
     id="metadata5460"><rdf:RDF><cc:Work
         rdf:about=""><dc:format>image/svg+xml</dc:format><dc:type
           rdf:resource="http://purl.org/dc/dcmitype/StillImage" /></cc:Work></rdf:RDF></metadata><defs
     id="defs5458" /><sodipodi:namedview
     pagecolor="#ffffff"
     bordercolor="#666666"
     borderopacity="1"
     objecttolerance="10"
     gridtolerance="10"
     guidetolerance="10"
     inkscape:pageopacity="0"
     inkscape:pageshadow="2"
     inkscape:window-width="967"
     inkscape:window-height="614"
     id="namedview5456"
     showgrid="false"
     inkscape:zoom="0.5959596"
     inkscape:cx="216.94334"
     inkscape:cy="444.73789"
     inkscape:window-x="105"
     inkscape:window-y="63"
     inkscape:window-maximized="0"
     inkscape:current-layer="Layer_1" /><g
     id="g5442"
     transform="matrix(0.56670023,0,0,0.52136391,-36.379194,127.02035)"><path
       d="m 257.331,339 -10.328,0 c -3.131,0 -5.669,2.538 -5.669,5.669 l 0,10.328 c 0,3.131 2.538,5.669 5.669,5.669 l 10.328,0 c 3.131,0 5.669,-2.538 5.669,-5.669 l 0,-10.327 c 0,-3.131 -2.538,-5.67 -5.669,-5.67 z"
       id="path5444"
       inkscape:connector-curvature="0" /><path
       d="m 367.331,339 -90.328,0 c -3.131,0 -5.669,2.538 -5.669,5.669 l 0,10.328 c 0,3.131 2.538,5.669 5.669,5.669 l 90.328,0 c 3.131,0 5.669,-2.538 5.669,-5.669 l 0,-10.327 c 0,-3.131 -2.538,-5.67 -5.669,-5.67 z"
       id="path5446"
       inkscape:connector-curvature="0" /><path
       d="m 257.331,379 -10.328,0 c -3.131,0 -5.669,2.538 -5.669,5.669 l 0,10.328 c 0,3.131 2.538,5.669 5.669,5.669 l 10.328,0 c 3.131,0 5.669,-2.538 5.669,-5.669 l 0,-10.327 c 0,-3.131 -2.538,-5.67 -5.669,-5.67 z"
       id="path5448"
       inkscape:connector-curvature="0" /><path
       d="m 367.331,379 -90.328,0 c -3.131,0 -5.669,2.538 -5.669,5.669 l 0,10.328 c 0,3.131 2.538,5.669 5.669,5.669 l 90.328,0 c 3.131,0 5.669,-2.538 5.669,-5.669 l 0,-10.327 c 0,-3.131 -2.538,-5.67 -5.669,-5.67 z"
       id="path5450"
       inkscape:connector-curvature="0" /><path
       d="m 257.331,419 -10.328,0 c -3.131,0 -5.669,2.538 -5.669,5.669 l 0,10.328 c 0,3.131 2.538,5.669 5.669,5.669 l 10.328,0 c 3.131,0 5.669,-2.538 5.669,-5.669 l 0,-10.327 c 0,-3.131 -2.538,-5.67 -5.669,-5.67 z"
       id="path5452"
       inkscape:connector-curvature="0" /><path
       d="m 367.331,419 -90.328,0 c -3.131,0 -5.669,2.538 -5.669,5.669 l 0,10.328 c 0,3.131 2.538,5.669 5.669,5.669 l 90.328,0 c 3.131,0 5.669,-2.538 5.669,-5.669 l 0,-10.327 c 0,-3.131 -2.538,-5.67 -5.669,-5.67 z"
       id="path5454"
       inkscape:connector-curvature="0" /></g><rect
     style="opacity:0;fill:#000000;fill-opacity:1;stroke:#000000;stroke-width:0.99173558;stroke-linecap:round;stroke-linejoin:round;stroke-miterlimit:4;stroke-dasharray:none;stroke-dashoffset:0;stroke-opacity:1"
     id="rect6006"
     width="119.00826"
     height="119.00826"
     x="77.182312"
     y="269.47046"
     inkscape:export-filename="/Users/raheelsayeed/Documents/CODE/IOS7/Excerpts/Excerpts/images/ActionsListView/text@2x~iphone.png"
     inkscape:export-xdpi="90"
     inkscape:export-ydpi="90" /></svg>