<?xml version="1.0" encoding="utf-8"?>
<!-- Generator: Adobe Illustrator 16.0.0, SVG Export Plug-In . SVG Version: 6.00 Build 0)  -->
<!DOCTYPE svg PUBLIC "-//W3C//DTD SVG 1.1//EN" "http://www.w3.org/Graphics/SVG/1.1/DTD/svg11.dtd">
<svg version="1.1" id="Layer_1" xmlns="http://www.w3.org/2000/svg" xmlns:xlink="http://www.w3.org/1999/xlink" x="0px" y="0px"
	 width="1024px" height="1024px" viewBox="0 0 1024 1024" enable-background="new 0 0 1024 1024" xml:space="preserve">
<linearGradient id="Background_1_" gradientUnits="userSpaceOnUse" x1="511.9995" y1="4.882812e-04" x2="511.9995" y2="1024.0005">
	<stop  offset="0" style="stop-color:#FFFFFF"/>
	<stop  offset="1" style="stop-color:#DCDBDB"/>
</linearGradient>
<rect id="Background" y="0" fill-rule="evenodd" clip-rule="evenodd" fill="url(#Background_1_)" width="1024" height="1024"/>
<g>
	<g opacity="0.3">
		<linearGradient id="SVGID_1_" gradientUnits="userSpaceOnUse" x1="511.5083" y1="186.501" x2="511.5083" y2="838.5132">
			<stop  offset="0" style="stop-color:#00AFEB"/>
			<stop  offset="0.0456" style="stop-color:#00ABE7"/>
			<stop  offset="0.227" style="stop-color:#009ADA"/>
			<stop  offset="0.4123" style="stop-color:#008DCF"/>
			<stop  offset="0.6007" style="stop-color:#0684C7"/>
			<stop  offset="0.7941" style="stop-color:#1F7EC2"/>
			<stop  offset="1" style="stop-color:#237CC1"/>
		</linearGradient>
		<path fill-rule="evenodd" clip-rule="evenodd" fill="url(#SVGID_1_)" d="M775.948,186.898l-528.88-0.397
			c-10.247,0-18.554,8.729-18.554,19.495v48.34c0,10.767,8.307,19.495,18.554,19.495l528.88,0.663
			c10.247,0,18.555-8.758,18.555-19.561v-48.474C794.503,195.656,786.195,186.898,775.948,186.898z M622.098,750.503H248.872
			c-10.148,0-18.374,8.806-18.374,19.668v48.674c0,10.862,8.226,19.668,18.374,19.668h373.226c10.148,0,18.374-8.806,18.374-19.668
			v-48.674C640.472,759.309,632.246,750.503,622.098,750.503z"/>
	</g>
</g>
<g id="Shadow" opacity="0.07">
	<g>
		<path fill-rule="evenodd" clip-rule="evenodd" d="M723.267,574.528h-476.53c-10.35,0-18.74,8.802-18.74,19.659v48.655
			c0,10.857,8.39,19.659,18.74,19.659h476.53c10.35,0,18.739-8.802,18.739-19.659v-48.655
			C742.006,583.33,733.616,574.528,723.267,574.528z M246.506,474.479h374.988c10.223,0,18.51-8.798,18.51-19.651v-48.667
			c0-10.853-8.287-19.651-18.51-19.651H246.506c-10.222,0-18.509,8.798-18.509,19.651v48.667
			C227.997,465.681,236.284,474.479,246.506,474.479z M411.878,762.503H246.102c-10,0-18.106,8.806-18.106,19.668v48.674
			c0,10.862,8.106,19.668,18.106,19.668h165.776c10,0,18.106-8.806,18.106-19.668v-48.674
			C429.984,771.309,421.878,762.503,411.878,762.503z M777.494,198.51H468.506c-10.222,0-18.509,8.798-18.509,19.651v48.667
			c0,10.853,8.287,19.651,18.509,19.651h308.988c10.223,0,18.51-8.798,18.51-19.651v-48.667
			C796.004,207.308,787.717,198.51,777.494,198.51z"/>
	</g>
</g>
<g>
	<g>
		<linearGradient id="SVGID_2_" gradientUnits="userSpaceOnUse" x1="511.4995" y1="186.5098" x2="511.4995" y2="838.5132">
			<stop  offset="0" style="stop-color:#00B2E6"/>
			<stop  offset="1" style="stop-color:#007EC3"/>
		</linearGradient>
		<path fill-rule="evenodd" clip-rule="evenodd" fill="url(#SVGID_2_)" d="M722.767,562.528h-476.53
			c-10.35,0-18.74,8.802-18.74,19.659v48.655c0,10.857,8.39,19.659,18.74,19.659h476.53c10.35,0,18.739-8.802,18.739-19.659v-48.655
			C741.506,571.33,733.116,562.528,722.767,562.528z M246.006,462.479h374.988c10.223,0,18.51-8.798,18.51-19.651v-48.667
			c0-10.853-8.287-19.651-18.51-19.651H246.006c-10.222,0-18.509,8.798-18.509,19.651v48.667
			C227.497,453.681,235.784,462.479,246.006,462.479z M411.378,750.503H245.602c-10,0-18.106,8.806-18.106,19.668v48.674
			c0,10.862,8.106,19.668,18.106,19.668h165.776c10,0,18.106-8.806,18.106-19.668v-48.674
			C429.484,759.309,421.378,750.503,411.378,750.503z M776.994,186.51H468.006c-10.222,0-18.509,8.798-18.509,19.651v48.667
			c0,10.853,8.287,19.651,18.509,19.651h308.988c10.223,0,18.51-8.798,18.51-19.651v-48.667
			C795.504,195.308,787.217,186.51,776.994,186.51z"/>
	</g>
</g>
</svg>
