<?xml version="1.0" encoding="UTF-8" standalone="no"?>
<!-- Created with Inkscape (http://www.inkscape.org/) -->

<svg
   xmlns:dc="http://purl.org/dc/elements/1.1/"
   xmlns:cc="http://creativecommons.org/ns#"
   xmlns:rdf="http://www.w3.org/1999/02/22-rdf-syntax-ns#"
   xmlns:svg="http://www.w3.org/2000/svg"
   xmlns="http://www.w3.org/2000/svg"
   xmlns:xlink="http://www.w3.org/1999/xlink"
   xmlns:sodipodi="http://sodipodi.sourceforge.net/DTD/sodipodi-0.dtd"
   xmlns:inkscape="http://www.inkscape.org/namespaces/inkscape"
   width="60"
   height="60"
   id="svg2"
   version="1.1"
   inkscape:version="0.48.2 r9819"
   inkscape:export-filename="/Users/raheelsayeed/Documents/CODE/IOS7/Excerpts/Excerpts/images/ExcerptView/cexcerptprogress3@2x.png"
   inkscape:export-xdpi="90"
   inkscape:export-ydpi="90"
   sodipodi:docname="progressAnimationImages.svg">
  <defs
     id="defs4">
    <linearGradient
       inkscape:collect="always"
       xlink:href="#SVGID_2_"
       id="linearGradient4249"
       gradientUnits="userSpaceOnUse"
       gradientTransform="matrix(0.64128284,0,0,0.80564469,1471.9699,113.9645)"
       x1="511.49951"
       y1="186.5098"
       x2="511.49951"
       y2="838.51318" />
    <linearGradient
       inkscape:collect="always"
       xlink:href="#SVGID_2_"
       id="linearGradient4269"
       gradientUnits="userSpaceOnUse"
       gradientTransform="matrix(0.64128284,0,0,0.80564469,1471.9699,113.9645)"
       x1="511.49951"
       y1="186.5098"
       x2="511.49951"
       y2="838.51318" />
    <linearGradient
       inkscape:collect="always"
       xlink:href="#SVGID_2_"
       id="linearGradient4271"
       gradientUnits="userSpaceOnUse"
       gradientTransform="matrix(0.64128284,0,0,0.80564469,1471.9699,113.9645)"
       x1="511.49951"
       y1="186.5098"
       x2="511.49951"
       y2="838.51318" />
  </defs>
  <sodipodi:namedview
     id="base"
     pagecolor="#ffffff"
     bordercolor="#666666"
     borderopacity="1.0"
     inkscape:pageopacity="0.0"
     inkscape:pageshadow="2"
     inkscape:zoom="3.959798"
     inkscape:cx="-8.4222447"
     inkscape:cy="46.449875"
     inkscape:document-units="px"
     inkscape:current-layer="layer1-8"
     showgrid="false"
     inkscape:window-width="1280"
     inkscape:window-height="701"
     inkscape:window-x="0"
     inkscape:window-y="0"
     inkscape:window-maximized="1" />
  <metadata
     id="metadata7">
    <rdf:RDF>
      <cc:Work
         rdf:about="">
        <dc:format>image/svg+xml</dc:format>
        <dc:type
           rdf:resource="http://purl.org/dc/dcmitype/StillImage" />
        <dc:title></dc:title>
      </cc:Work>
    </rdf:RDF>
  </metadata>
  <g
     inkscape:label="Layer 1"
     inkscape:groupmode="layer"
     id="layer1"
     transform="translate(0,-992.36218)">
    <rect
       ry="4.1269841"
       y="985.08063"
       x="-39.424603"
       height="17.777779"
       width="17.777777"
       id="rect3755"
       style="fill:none;stroke:#000000;stroke-width:2.22222233;stroke-linecap:butt;stroke-linejoin:miter;stroke-miterlimit:4;stroke-opacity:0.51111115;stroke-dasharray:none" />
    <g
       id="layer1-8"
       inkscape:label="Layer 1"
       transform="translate(-192.45171,751.76598)">
      <g
         id="g4202"
         transform="matrix(0.05859375,0,0,0.05859375,-73.282362,224.69881)">
        <rect
           height="1024"
           width="1024"
           clip-rule="evenodd"
           y="0"
           id="Background"
           x="0"
           style="fill:url(#Background_1_);fill-rule:evenodd" />
        <g
           id="g4159">
	<g
   id="g4161"
   style="opacity:0.3">
		<linearGradient
   y2="838.51318"
   x2="511.5083"
   y1="186.50101"
   x1="511.5083"
   gradientUnits="userSpaceOnUse"
   id="SVGID_1_">
			<stop
   id="stop4164"
   style="stop-color:#ff0000;stop-opacity:1"
   offset="0" />

			<stop
   id="stop4166"
   style="stop-color:#00ABE7"
   offset="0.0456" />

			<stop
   id="stop4168"
   style="stop-color:#009ADA"
   offset="0.227" />

			<stop
   id="stop4170"
   style="stop-color:#008DCF"
   offset="0.4123" />

			<stop
   id="stop4172"
   style="stop-color:#0684C7"
   offset="0.6007" />

			<stop
   id="stop4174"
   style="stop-color:#1F7EC2"
   offset="0.7941" />

			<stop
   id="stop4176"
   style="stop-color:#237CC1"
   offset="1" />

		</linearGradient>

		<path
   id="path4178"
   d="m 775.948,186.898 -528.88,-0.397 c -10.247,0 -18.554,8.729 -18.554,19.495 v 48.34 c 0,10.767 8.307,19.495 18.554,19.495 l 528.88,0.663 c 10.247,0 18.555,-8.758 18.555,-19.561 v -48.474 c 0,-10.803 -8.308,-19.561 -18.555,-19.561 z M 622.098,750.503 H 248.872 c -10.148,0 -18.374,8.806 -18.374,19.668 v 48.674 c 0,10.862 8.226,19.668 18.374,19.668 h 373.226 c 10.148,0 18.374,-8.806 18.374,-19.668 v -48.674 c 0,-10.862 -8.226,-19.668 -18.374,-19.668 z"
   clip-rule="evenodd"
   inkscape:connector-curvature="0"
   style="fill:url(#SVGID_1_);fill-rule:evenodd" />

	</g>

</g>
        <g
           id="Shadow"
           style="opacity:0.07000002"
           transform="matrix(0.91280565,0,0,1.8990731,1620.3327,-104.51705)">
	<g
   id="g4181">
		<path
   id="path4183"
   d="m 1441.2316,327.80953 -308.988,0 c -10.222,0 -18.509,8.798 -18.509,19.651 l 0,48.667 c 0,10.853 8.287,19.651 18.509,19.651 l 308.988,0 c 10.223,0 18.51,-8.798 18.51,-19.651 l 0,-48.667 c 0,-10.853 -8.287,-19.651 -18.51,-19.651 z"
   clip-rule="evenodd"
   inkscape:connector-curvature="0"
   style="fill-rule:evenodd"
   sodipodi:nodetypes="sssssssss" />

	</g>

</g>
        <g
           id="g4185"
           transform="matrix(1.4162983,0,0,2.7617159,168.40431,-282.3274)"
           style="opacity:0.61000001">
	<g
   id="g4187"
   transform="translate(-16.280102,7.7308565)">
		<linearGradient
   y2="838.51318"
   x2="511.49951"
   y1="186.5098"
   x1="511.49951"
   gradientUnits="userSpaceOnUse"
   id="SVGID_2_"
   gradientTransform="matrix(0.64128284,0,0,0.80564469,1471.9699,113.9645)">
			<stop
   id="stop4190"
   style="stop-color:#cccccc;stop-opacity:1"
   offset="0" />

			<stop
   id="stop4192"
   style="stop-color:#cccccc;stop-opacity:1"
   offset="1" />

		</linearGradient>

		<path
   id="path4194"
   d="m 1970.243,264.22529 -198.1488,0 c -6.5552,0 -11.8695,7.08806 -11.8695,15.83172 l 0,39.20831 c 0,8.74367 5.3143,15.83173 11.8695,15.83173 l 198.1488,0 c 6.5558,0 11.8701,-7.08806 11.8701,-15.83173 l 0,-39.20831 c 0,-8.74366 -5.3143,-15.83172 -11.8701,-15.83172 z"
   clip-rule="evenodd"
   inkscape:connector-curvature="0"
   style="fill:url(#linearGradient4271);fill-rule:evenodd"
   sodipodi:nodetypes="sssssssss" />

	</g>

</g>
        <g
           transform="translate(-314.62885,741.31728)"
           style="opacity:0.07000002"
           id="g4225">
	<g
   id="g4227">
		<path
   sodipodi:nodetypes="sssssssss"
   style="fill-rule:evenodd"
   inkscape:connector-curvature="0"
   clip-rule="evenodd"
   d="m 1441.2316,327.80953 -308.988,0 c -10.222,0 -18.509,8.798 -18.509,19.651 l 0,48.667 c 0,10.853 8.287,19.651 18.509,19.651 l 308.988,0 c 10.223,0 18.51,-8.798 18.51,-19.651 l 0,-48.667 c 0,-10.853 -8.287,-19.651 -18.51,-19.651 z"
   id="path4229" />

	</g>

</g>
        <g
           transform="matrix(0.91280565,0,0,1.8990731,1956.5114,-108.82703)"
           style="opacity:0.07000002"
           id="g4231">
	<g
   id="g4233">
		<path
   sodipodi:nodetypes="sssssssss"
   style="fill-rule:evenodd"
   inkscape:connector-curvature="0"
   clip-rule="evenodd"
   d="m 1441.2316,327.80953 -308.988,0 c -10.222,0 -18.509,8.798 -18.509,19.651 l 0,48.667 c 0,10.853 8.287,19.651 18.509,19.651 l 308.988,0 c 10.223,0 18.51,-8.798 18.51,-19.651 l 0,-48.667 c 0,-10.853 -8.287,-19.651 -18.51,-19.651 z"
   id="path4235" />

	</g>

</g>
        <g
           transform="matrix(1.4162983,0,0,2.7617159,504.58308,-286.63738)"
           id="g4237"
           style="opacity:0.6">
	<g
   transform="translate(-16.280102,7.7308565)"
   id="g4239">
		<linearGradient
   gradientTransform="matrix(0.64128284,0,0,0.80564469,1471.9699,113.9645)"
   id="linearGradient4241"
   gradientUnits="userSpaceOnUse"
   x1="511.49951"
   y1="186.5098"
   x2="511.49951"
   y2="838.51318">
			<stop
   offset="0"
   style="stop-color:#cccccc;stop-opacity:1"
   id="stop4243" />

			<stop
   offset="1"
   style="stop-color:#cccccc;stop-opacity:1"
   id="stop4245" />

		</linearGradient>

		<path
   sodipodi:nodetypes="sssssssss"
   style="fill:url(#linearGradient4249);fill-rule:evenodd"
   inkscape:connector-curvature="0"
   clip-rule="evenodd"
   d="m 1970.243,264.22529 -198.1488,0 c -6.5552,0 -11.8695,7.08806 -11.8695,15.83172 l 0,39.20831 c 0,8.74367 5.3143,15.83173 11.8695,15.83173 l 198.1488,0 c 6.5558,0 11.8701,-7.08806 11.8701,-15.83173 l 0,-39.20831 c 0,-8.74366 -5.3143,-15.83172 -11.8701,-15.83172 z"
   id="path4247" />

	</g>

</g>
        <g
           id="g4251"
           style="opacity:0.07000002"
           transform="matrix(0.91280565,0,0,1.8990731,2297.0002,-108.82703)">
	<g
   id="g4253">
		<path
   id="path4255"
   d="m 1441.2316,327.80953 -308.988,0 c -10.222,0 -18.509,8.798 -18.509,19.651 l 0,48.667 c 0,10.853 8.287,19.651 18.509,19.651 l 308.988,0 c 10.223,0 18.51,-8.798 18.51,-19.651 l 0,-48.667 c 0,-10.853 -8.287,-19.651 -18.51,-19.651 z"
   clip-rule="evenodd"
   inkscape:connector-curvature="0"
   style="fill-rule:evenodd"
   sodipodi:nodetypes="sssssssss" />

	</g>

</g>
        <g
           id="g4257"
           transform="matrix(1.4162983,0,0,2.7617159,866.62175,-450.41678)"
           style="opacity:0.6">
	<g
   id="g4259"
   transform="translate(-16.280102,7.7308565)">
		<linearGradient
   y2="838.51318"
   x2="511.49951"
   y1="186.5098"
   x1="511.49951"
   gradientUnits="userSpaceOnUse"
   id="linearGradient4261"
   gradientTransform="matrix(0.64128284,0,0,0.80564469,1471.9699,113.9645)">
			<stop
   id="stop4263"
   style="stop-color:#cccccc;stop-opacity:1"
   offset="0" />

			<stop
   id="stop4265"
   style="stop-color:#cccccc;stop-opacity:1"
   offset="1" />

		</linearGradient>

		<path
   id="path4267"
   d="m 1970.243,264.22529 -198.1488,0 c -6.5552,0 -11.8695,7.08806 -11.8695,15.83172 l 0,39.20831 c 0,8.74367 5.3143,15.83173 11.8695,15.83173 l 198.1488,0 c 6.5558,0 11.8701,-7.08806 11.8701,-15.83173 l 0,-39.20831 c 0,-8.74366 -5.3143,-15.83172 -11.8701,-15.83172 z"
   clip-rule="evenodd"
   inkscape:connector-curvature="0"
   style="fill:url(#linearGradient4269);fill-rule:evenodd"
   sodipodi:nodetypes="sssssssss" />

	</g>

</g>
      </g>
      <path
         sodipodi:type="arc"
         style="fill:#e6e6e6;fill-opacity:1;stroke:none"
         id="path4292"
         sodipodi:cx="12.626906"
         sodipodi:cy="28.180195"
         sodipodi:rx="9.5964489"
         sodipodi:ry="9.3439112"
         d="m 22.223355,28.180195 a 9.5964489,9.3439112 0 1 1 -19.1928975,0 9.5964489,9.3439112 0 1 1 19.1928975,0 z"
         transform="matrix(0.82848302,0,0,0.85087441,194.28622,201.44072)" />
      <path
         transform="matrix(0.82848302,0,0,0.85087441,158.42581,257.23134)"
         d="m 22.223355,28.180195 a 9.5964489,9.3439112 0 1 1 -19.1928975,0 9.5964489,9.3439112 0 1 1 19.1928975,0 z"
         sodipodi:ry="9.3439112"
         sodipodi:rx="9.5964489"
         sodipodi:cy="28.180195"
         sodipodi:cx="12.626906"
         id="path4294"
         style="opacity:0.65517243;fill:#f2f2f2;fill-opacity:1;stroke:none"
         sodipodi:type="arc" />
      <path
         sodipodi:type="arc"
         style="opacity:0.65517243;fill:#f2f2f2;fill-opacity:1;stroke:none"
         id="path4296"
         sodipodi:cx="12.626906"
         sodipodi:cy="28.180195"
         sodipodi:rx="9.5964489"
         sodipodi:ry="9.3439112"
         d="m 22.223355,28.180195 a 9.5964489,9.3439112 0 1 1 -19.1928975,0 9.5964489,9.3439112 0 1 1 19.1928975,0 z"
         transform="matrix(0.82848302,0,0,0.85087441,163.47657,244.85697)" />
      <path
         transform="matrix(0.82848302,0,0,0.85087441,192.00803,243.7199)"
         d="m 22.223355,28.180195 a 9.5964489,9.3439112 0 1 1 -19.1928975,0 9.5964489,9.3439112 0 1 1 19.1928975,0 z"
         sodipodi:ry="9.3439112"
         sodipodi:rx="9.5964489"
         sodipodi:cy="28.180195"
         sodipodi:cx="12.626906"
         id="path4298"
         style="fill:#cccccc;fill-opacity:1;stroke:none;opacity:0.50000000000000000"
         sodipodi:type="arc" />
      <path
         sodipodi:type="arc"
         style="fill:#cccccc;fill-opacity:1;stroke:none;opacity:0.50000000000000000"
         id="path4300"
         sodipodi:cx="12.626906"
         sodipodi:cy="28.180195"
         sodipodi:rx="9.5964489"
         sodipodi:ry="9.3439112"
         d="m 22.223355,28.180195 a 9.5964489,9.3439112 0 1 1 -19.1928975,0 9.5964489,9.3439112 0 1 1 19.1928975,0 z"
         transform="matrix(0.82848302,0,0,0.85087441,211.80603,243.61459)" />
      <path
         transform="matrix(0.82848302,0,0,0.85087441,231.9144,243.36205)"
         d="m 22.223355,28.180195 a 9.5964489,9.3439112 0 1 1 -19.1928975,0 9.5964489,9.3439112 0 1 1 19.1928975,0 z"
         sodipodi:ry="9.3439112"
         sodipodi:rx="9.5964489"
         sodipodi:cy="28.180195"
         sodipodi:cx="12.626906"
         id="path4302"
         style="fill:#808080;fill-opacity:1;stroke:none;opacity:0.50000000000000000"
         sodipodi:type="arc" />
    </g>
  </g>
</svg>
