<?xml version="1.0" encoding="UTF-8" standalone="no"?>
<!-- Created with Inkscape (http://www.inkscape.org/) -->

<svg
   xmlns:dc="http://purl.org/dc/elements/1.1/"
   xmlns:cc="http://creativecommons.org/ns#"
   xmlns:rdf="http://www.w3.org/1999/02/22-rdf-syntax-ns#"
   xmlns:svg="http://www.w3.org/2000/svg"
   xmlns="http://www.w3.org/2000/svg"
   xmlns:sodipodi="http://sodipodi.sourceforge.net/DTD/sodipodi-0.dtd"
   xmlns:inkscape="http://www.inkscape.org/namespaces/inkscape"
   version="1.1"
   width="500"
   height="85"
   id="svg3400"
   inkscape:version="0.48.2 r9819"
   sodipodi:docname="searchIcons.svg">
  <metadata
     id="metadata18">
    <rdf:RDF>
      <cc:Work
         rdf:about="">
        <dc:format>image/svg+xml</dc:format>
        <dc:type
           rdf:resource="http://purl.org/dc/dcmitype/StillImage" />
        <dc:title />
      </cc:Work>
    </rdf:RDF>
  </metadata>
  <sodipodi:namedview
     pagecolor="#ffffff"
     bordercolor="#666666"
     borderopacity="1"
     objecttolerance="10"
     gridtolerance="10"
     guidetolerance="10"
     inkscape:pageopacity="0"
     inkscape:pageshadow="2"
     inkscape:window-width="1280"
     inkscape:window-height="701"
     id="namedview16"
     showgrid="false"
     inkscape:zoom="2.8284271"
     inkscape:cx="-363.84947"
     inkscape:cy="255.37504"
     inkscape:window-x="89"
     inkscape:window-y="0"
     inkscape:window-maximized="0"
     inkscape:current-layer="layer1" />
  <defs
     id="defs3402">
    <inkscape:perspective
       sodipodi:type="inkscape:persp3d"
       inkscape:vp_x="0 : 42.5 : 1"
       inkscape:vp_y="0 : 1000 : 0"
       inkscape:vp_z="500 : 42.5 : 1"
       inkscape:persp3d-origin="250 : 28.333333 : 1"
       id="perspective3813" />
    <clipPath
       clipPathUnits="userSpaceOnUse"
       id="clipPath4001">
      <path
         inkscape:export-ydpi="134"
         inkscape:export-xdpi="134"
         inkscape:export-filename="/Users/raheelsayeed/Documents/CODE/IOS7/Excerpts/Excerpts/images/test/wiki@2x.png"
         d="m -66.1094,632.05031 c -0.0307,0.10141 0.28876,0.45007 0.3886,0.4808 l 0.23808,-0.15056 c 0.0983,0.0307 0.31181,-0.0631 0.34253,-0.16127 l 0.0415,-0.40549 -0.42854,-2.00296 c -0.0784,-0.10282 -0.13825,-0.0275 -0.16435,0.066 l -0.41779,2.17344 z"
         id="path4003"
         style="fill:#f2464f;fill-opacity:1"
         inkscape:connector-curvature="0" />
    </clipPath>
    <clipPath
       clipPathUnits="userSpaceOnUse"
       id="clipPath4005">
      <path
         inkscape:export-ydpi="134"
         inkscape:export-xdpi="134"
         inkscape:export-filename="/Users/raheelsayeed/Documents/CODE/IOS7/Excerpts/Excerpts/images/test/wiki@2x.png"
         d="m -66.1094,632.05031 c -0.0307,0.10141 0.28876,0.45007 0.3886,0.4808 l 0.23808,-0.15056 c 0.0983,0.0307 0.31181,-0.0631 0.34253,-0.16127 l 0.0415,-0.40549 -0.42854,-2.00296 c -0.0784,-0.10282 -0.13825,-0.0275 -0.16435,0.066 l -0.41779,2.17344 z"
         id="path4007"
         style="fill:#f2464f;fill-opacity:1"
         inkscape:connector-curvature="0" />
    </clipPath>
    <clipPath
       clipPathUnits="userSpaceOnUse"
       id="clipPath4009">
      <path
         inkscape:export-ydpi="134"
         inkscape:export-xdpi="134"
         inkscape:export-filename="/Users/raheelsayeed/Documents/CODE/IOS7/Excerpts/Excerpts/images/test/wiki@2x.png"
         d="m -66.1094,632.05031 c -0.0307,0.10141 0.28876,0.45007 0.3886,0.4808 l 0.23808,-0.15056 c 0.0983,0.0307 0.31181,-0.0631 0.34253,-0.16127 l 0.0415,-0.40549 -0.42854,-2.00296 c -0.0784,-0.10282 -0.13825,-0.0275 -0.16435,0.066 l -0.41779,2.17344 z"
         id="path4011"
         style="fill:#f2464f;fill-opacity:1"
         inkscape:connector-curvature="0" />
    </clipPath>
    <clipPath
       clipPathUnits="userSpaceOnUse"
       id="clipPath4013">
      <path
         inkscape:export-ydpi="134"
         inkscape:export-xdpi="134"
         inkscape:export-filename="/Users/raheelsayeed/Documents/CODE/IOS7/Excerpts/Excerpts/images/test/wiki@2x.png"
         d="m -66.1094,632.05031 c -0.0307,0.10141 0.28876,0.45007 0.3886,0.4808 l 0.23808,-0.15056 c 0.0983,0.0307 0.31181,-0.0631 0.34253,-0.16127 l 0.0415,-0.40549 -0.42854,-2.00296 c -0.0784,-0.10282 -0.13825,-0.0275 -0.16435,0.066 l -0.41779,2.17344 z"
         id="path4015"
         style="fill:#f2464f;fill-opacity:1"
         inkscape:connector-curvature="0" />
    </clipPath>
    <clipPath
       clipPathUnits="userSpaceOnUse"
       id="clipPath4017">
      <path
         inkscape:export-ydpi="134"
         inkscape:export-xdpi="134"
         inkscape:export-filename="/Users/raheelsayeed/Documents/CODE/IOS7/Excerpts/Excerpts/images/test/wiki@2x.png"
         d="m -66.1094,632.05031 c -0.0307,0.10141 0.28876,0.45007 0.3886,0.4808 l 0.23808,-0.15056 c 0.0983,0.0307 0.31181,-0.0631 0.34253,-0.16127 l 0.0415,-0.40549 -0.42854,-2.00296 c -0.0784,-0.10282 -0.13825,-0.0275 -0.16435,0.066 l -0.41779,2.17344 z"
         id="path4019"
         style="fill:#f2464f;fill-opacity:1"
         inkscape:connector-curvature="0" />
    </clipPath>
  </defs>
  <g
     transform="translate(-357.71336,-784.65111)"
     id="layer1">
    <path
       d="m 175.77145,762.68879 c 0,0 -1.468,-2.984 -1.968,-3.976 -3.336,-6.612 -3.264,-6.964 -6.636,-7.408 -0.944,-0.124 -1.432,-0.244 -1.432,-0.712 v -2.092 l 0.284,-0.204 c 6.092,-0.008 19.648,-0.008 19.648,-0.008 l 0.52,0.172 v 2.084 c 0,0.476 -0.34,0.72 -1.032,0.72 l -1.424,0.204 c -3.6,0.28 -3.012,1.752 -0.62,6.516 l 22.708,46.46 0.776,0.212 20.16,-47.844 c 0.7,-1.928 0.592,-3.296 -0.308,-4.1 -0.904,-0.784 -1.54,-1.248 -3.876,-1.344 l -1.892,-0.096 c -0.232,0 -0.452,-0.084 -0.664,-0.24 -0.208,-0.148 -0.316,-0.344 -0.316,-0.58 v -1.992 l 0.288,-0.204 c 5.68,0 22.776,0 22.776,0 l 0.232,0.204 v 1.992 c 0,0.54 -0.308,0.812 -0.916,0.812 -2.984,0.132 -5.196,0.78 -6.628,1.936 -1.436,1.164 -2.556,2.768 -3.36,4.852 0,0 -18.54,42.436 -24.884,56.54 -2.428,4.624 -4.816,4.2 -6.916,-0.132 -4.436,-9.136 -16.928,-36.852 -16.928,-36.852 l -7.592,-14.92 z"
       id="path3898"
       inkscape:connector-curvature="0" />
    <path
       d="m 212.15545,748.26479 c 0,0 -12.812,-0.04 -18.516,0 l -0.284,0.204 v 1.984 c 0,0.244 0.104,0.436 0.312,0.584 0.212,0.156 0.428,0.236 0.66,0.236 l 0.916,0.1 c 2.332,0.096 3.404,0.708 3.724,1.092 0.556,0.68 0.832,1.416 -0.516,4.356 l -23.92,47.708 -0.628,-0.164 c 0,0 -17.132,-36.124 -22.092,-48.208 -0.516,-1.252 -0.748,-2.18 -0.748,-2.752 0,-1.228 1.108,-1.892 3.324,-1.984 l 2.584,-0.108 c 0.684,0 1.032,-0.264 1.032,-0.812 v -1.984 l -0.232,-0.204 c 0,0 -20.52,-0.024 -24.76,0 l -0.232,0.204 v 2.084 c 0,0.376 0.476,0.608 1.432,0.712 2.604,0.14 4.316,0.556 5.14,1.248 0.82,0.7 1.688,2.468 2.84,5.224 6.228,14.96 19.46,41.656 25.904,56.86 1.856,4.152 4.188,4.796 7.02,-0.128 4.904,-9.096 18.2,-36.872 18.2,-36.872 l 10.472,-19.584 c 1.22,-2.068 2.396,-3.912 2.992,-4.772 1.092,-1.572 1.704,-1.868 4.688,-2.008 0.608,0 0.916,-0.272 0.916,-0.82 v -1.984 l -0.228,-0.212 z"
       id="path3900"
       inkscape:connector-curvature="0" />
    <path
       d="m 186.88345,793.87279 c -0.08,0.264 0.752,1.172 1.012,1.252 l 0.62,-0.392 c 0.256,0.08 0.812,-0.164 0.892,-0.42 l 0.108,-1.056 -1.116,-5.216 c -0.204,-0.268 -0.36,-0.072 -0.428,0.172 l -1.088,5.66 z"
       id="path3902"
       style="fill:#ffffff"
       inkscape:connector-curvature="0" />
    <path
       d="m 488.32736,854.23088 c 0,2.288 1.04,3.64 4.368,3.952 l 2.184,0.212 c 0.312,0 0.624,0.204 0.624,0.62 v 2.184 l -0.104,0.212 c 0,0 -7.904,-0.212 -11.128,-0.212 -2.912,0 -11.024,0.212 -11.024,0.212 l -0.208,-0.212 v -2.184 c 0,-0.416 0.312,-0.62 0.728,-0.62 l 2.08,-0.212 c 3.432,-0.312 4.472,-1.976 4.472,-3.952 v -34.632 c 0,-2.284 -1.252,-2.916 -4.472,-3.22 l -2.08,-0.216 c -0.416,0 -0.728,-0.096 -0.728,-0.416 v -2.396 l 0.104,-0.208 c 0,0 8.216,0.208 11.44,0.208 2.808,0 10.816,-0.208 10.816,-0.208 l 0.104,0.208 v 2.288 c 0,0.312 -0.208,0.52 -0.624,0.52 l -2.184,0.212 c -3.224,0.308 -4.368,1.144 -4.368,3.228 v 34.632 z"
       id="path3904" />
    <path
       d="m 519.01936,854.23088 c 0,2.288 1.352,3.432 4.368,3.952 l 1.144,0.212 c 0.312,0.1 0.624,0.204 0.624,0.62 v 2.184 l -0.104,0.212 c 0,0 -6.552,-0.212 -9.672,-0.212 -2.912,0 -11.44,0.212 -11.44,0.212 l -0.208,-0.212 v -2.184 c 0,-0.416 0.312,-0.62 0.728,-0.62 l 2.08,-0.212 c 3.12,-0.312 4.472,-1.976 4.472,-3.952 v -34.632 c 0,-2.284 -1.144,-2.916 -4.472,-3.22 l -2.08,-0.216 c -0.416,0 -0.728,-0.096 -0.728,-0.416 v -2.396 l 0.104,-0.208 c 0,0 8.528,0.208 11.752,0.208 2.916,0 9.464,-0.208 9.464,-0.208 l 0.104,0.208 v 2.288 c 0,0.312 -0.208,0.416 -0.624,0.52 l -1.144,0.212 c -3.224,0.62 -4.368,1.144 -4.368,3.228 v 15.704 c 3.432,0 5.408,-1.764 9.984,-6.656 4.16,-4.58 7.384,-8.42 7.384,-10.4 0,-0.836 -0.936,-1.768 -3.016,-2.084 -0.416,-0.1 -0.624,-0.208 -0.624,-0.52 v -2.396 l 0.104,-0.1 c 0,0 8.424,0.208 11.44,0.208 2.704,0 7.28,-0.208 7.28,-0.208 l 0.312,0.1 v 2.396 c 0,0.312 -0.312,0.52 -0.832,0.52 -4.056,0.312 -6.864,0.52 -10.608,4.784 l -8.944,10.292 c -1.768,1.876 -2.392,3.016 -2.392,3.852 0,0.624 0.416,1.14 0.936,1.764 l 15.704,18.928 c 1.248,1.452 3.744,2.08 5.824,2.492 l 0.52,0.1 c 0.312,0.104 0.728,0.312 0.728,0.624 v 2.184 l -0.312,0.104 c 0,0 -5.512,-0.104 -8.424,-0.104 -2.6,0 -6.344,0.104 -6.344,0.104 l -0.104,-0.104 v -1.248 c 0,-1.356 -0.104,-2.492 -1.56,-4.156 l -11.544,-14.356 c -1.56,-2.084 -3.224,-2.596 -5.512,-2.596 v 15.404 l 0,0 z"
       id="path3906" />
    <path
       d="m 575.08736,854.23088 c 0,2.288 1.04,3.64 4.368,3.952 l 2.184,0.212 c 0.312,0 0.624,0.204 0.624,0.62 v 2.184 l -0.104,0.212 c 0,0 -7.904,-0.212 -11.128,-0.212 -2.912,0 -11.024,0.212 -11.024,0.212 l -0.208,-0.212 v -2.184 c 0,-0.416 0.312,-0.62 0.728,-0.62 l 2.08,-0.212 c 3.432,-0.312 4.472,-1.976 4.472,-3.952 v -34.632 c 0,-2.284 -1.248,-2.916 -4.472,-3.22 l -2.08,-0.216 c -0.416,0 -0.728,-0.096 -0.728,-0.416 v -2.396 l 0.104,-0.208 c 0,0 8.216,0.208 11.44,0.208 2.808,0 10.816,-0.208 10.816,-0.208 l 0.104,0.208 v 2.288 c 0,0.312 -0.208,0.52 -0.624,0.52 l -2.184,0.212 c -3.224,0.308 -4.368,1.144 -4.368,3.228 v 34.632 z"
       id="path3908" />
    <path
       d="m 597.55936,819.80288 c 0,-3.224 -1.352,-3.328 -6.24,-3.64 -0.624,0 -0.728,-0.308 -0.728,-0.52 v -2.392 l 0.208,-0.104 c 1.56,0 7.696,0.208 10.712,0.208 2.912,0 7.072,-0.208 10.92,-0.208 14.76,0 17.464,7.276 17.464,12.692 0,6.244 -3.016,16.016 -17.776,16.016 -2.6,0 -4.68,-0.212 -6.556,-1.04 v 13.928 c 0,2.288 1.248,2.812 4.58,3.328 l 2.084,0.312 c 0.416,0.104 0.728,0.212 0.728,0.624 v 2.184 l -0.1,0.208 c 0,0 -8.32,-0.208 -11.544,-0.208 -2.912,0 -10.712,0.208 -10.712,0.208 l -0.104,-0.208 v -2.184 c 0,-0.416 0.208,-0.52 0.624,-0.624 l 2.184,-0.312 c 3.224,-0.416 4.264,-1.352 4.264,-3.328 l -0.008,-34.94 0,0 z m 8.008,18.1 c 2.08,0.836 4.68,0.936 6.76,0.936 6.244,0 9.248,-3.752 9.248,-11.752 0,-8.944 -4.056,-10.92 -9.768,-10.92 -4.996,0 -6.244,0.936 -6.244,3.64 l 0.004,18.096 0,0 z"
       id="path3910" />
    <path
       d="m 647.80736,861.19888 c -3.12,0 -10.292,0.212 -10.292,0.212 l -0.108,-0.212 v -2.288 c 0,-0.204 0.108,-0.516 0.624,-0.516 l 2.396,-0.212 c 3.228,-0.312 4.164,-2.392 4.164,-4.468 v -34.32 c 0,-2.4 -1.252,-2.812 -4.164,-3.016 l -2.396,-0.216 c -0.624,-0.096 -0.624,-0.308 -0.624,-0.416 v -2.396 l 0.108,-0.208 c 0,0 8.108,0.208 11.228,0.208 h 15.288 c 3.12,0 10.508,-0.208 10.508,-0.208 l 0.212,0.208 c 0.1,4.472 0.828,8.536 1.56,12.484 l -2.596,0.416 c -1.14,-3.852 -3.116,-9.36 -9.772,-9.36 h -8.32 c -1.976,0 -3.016,0.728 -3.016,2.492 v 15.084 h 7.796 c 2.916,0 3.64,-1.248 4.06,-3.328 l 0.62,-2.184 c 0,-0.312 0.212,-0.524 0.624,-0.524 h 1.764 c 0.212,0 0.212,0.108 0.212,0.312 -0.212,2.288 -0.624,5.204 -0.624,7.7 0,2.596 0.416,4.784 0.624,7.176 l -0.212,0.212 h -1.764 c -0.516,0 -0.732,-0.212 -0.732,-0.524 l -0.52,-2.284 c -0.416,-2.084 -1.352,-3.228 -4.064,-3.228 h -7.792 v 15.916 c 0,1.972 1.136,3.948 3.016,3.948 h 9.88 c 5.304,0 8.22,-3.328 9.464,-8.74 l 2.596,0.312 -2.084,11.956 -0.208,0.208 c 0,0 -6.136,-0.208 -9.256,-0.208 l -18.2,0.012 0,0 z"
       id="path3912" />
    <path
       d="m 686.91936,858.39488 2.392,-0.212 c 3.124,-0.312 4.164,-1.248 4.164,-4.468 v -34.32 c 0,-2.712 -0.736,-2.712 -4.164,-3.016 l -2.28,-0.216 c -0.416,0 -0.736,-0.208 -0.736,-0.52 v -2.288 l 0.1,-0.208 c 0,0 9.156,0.208 11.032,0.208 1.968,0 11.024,-0.208 13.728,-0.208 17.368,0 25.9,10.816 25.9,24.648 0,18.204 -12.9,23.604 -24.44,23.604 -8.32,0 -11.956,-0.208 -15.18,-0.208 -3.124,0 -11.028,0.208 -11.028,0.208 l -0.104,-0.208 v -2.184 c -0.008,-0.3 0.204,-0.612 0.616,-0.612 z m 23.196,0 c 11.436,0 17.892,-4.26 17.892,-18.828 0,-10.812 -2.396,-23.404 -19.868,-23.404 -4.056,0 -6.656,0.624 -6.656,3.232 v 34.32 c 0,2.904 0.724,4.68 8.632,4.68 z"
       id="path3914" />
    <path
       d="m 761.60736,854.23088 c 0,2.288 1.04,3.64 4.368,3.952 l 2.184,0.212 c 0.312,0 0.624,0.204 0.624,0.62 v 2.184 l -0.104,0.212 c 0,0 -7.904,-0.212 -11.124,-0.212 -2.916,0 -11.024,0.212 -11.024,0.212 l -0.212,-0.212 v -2.184 c 0,-0.416 0.312,-0.62 0.728,-0.62 l 2.084,-0.212 c 3.428,-0.312 4.472,-1.976 4.472,-3.952 v -34.632 c 0,-2.284 -1.252,-2.916 -4.472,-3.22 l -2.084,-0.216 c -0.416,0 -0.728,-0.096 -0.728,-0.416 v -2.396 l 0.104,-0.208 c 0,0 8.216,0.208 11.432,0.208 2.808,0 10.82,-0.208 10.82,-0.208 l 0.1,0.208 v 2.288 c 0,0.312 -0.212,0.52 -0.624,0.52 l -2.184,0.212 c -3.224,0.308 -4.368,1.144 -4.368,3.228 l 0.008,34.632 0,0 z"
       id="path3916" />
    <path
       d="m 793.64736,858.18288 3.016,0.212 c 0.416,0 0.832,0.312 0.832,0.828 v 1.976 l -0.208,0.212 c 0,0 -11.336,-0.212 -13.832,-0.212 -2.708,0 -9.364,0.212 -9.364,0.212 l -0.212,-0.212 v -1.976 c 0,-0.516 0.312,-0.828 0.836,-0.828 4.58,-0.312 7.172,-1.148 10.084,-7.804 l 23.084,-54.084 c 1.14,-2.704 1.976,-3.748 3.54,-3.748 1.452,0 1.976,1.044 2.804,3.124 l 21.32,56.368 c 1.46,4.06 3.54,5.616 7.7,6.032 l 1.144,0.1 c 0.52,0 1.04,0.312 1.04,0.836 v 1.972 l -0.312,0.208 c 0,0 -8.008,-0.208 -12.064,-0.208 -3.64,0 -13.836,0.208 -13.836,0.208 l -0.1,-0.208 v -1.972 c 0,-0.524 0.208,-0.836 0.736,-0.836 l 2.912,-0.208 c 3.948,-0.308 5.412,-1.564 4.368,-4.472 l -6.344,-17.58 h -21.632 c -2.496,0 -3.12,0.416 -3.636,1.764 l -6.036,15.084 c -1.04,2.608 0.312,4.9 4.16,5.212 z m 25.48,-26.424 -10.088,-27.764 h -0.208 l -10.4,26.416 c -0.416,1.044 0.308,1.352 2.596,1.352 h 18.1 z"
       id="path3918" />
    <path
       inkscape:connector-curvature="0"
       id="path2997"
       d="m -70.37641,620.07564 c 0,0 -0.56372,-1.14582 -0.75572,-1.52677 -1.28102,-2.539 -1.25337,-2.67416 -2.54822,-2.84465 -0.3625,-0.0475 -0.54989,-0.0936 -0.54989,-0.27342 v -0.80333 l 0.10906,-0.0782 c 2.33932,-0.004 7.54483,-0.004 7.54483,-0.004 l 0.19968,0.066 v 0.80027 c 0,0.18278 -0.13056,0.27647 -0.39629,0.27647 l -0.54682,0.0782 c -1.3824,0.10756 -1.1566,0.67276 -0.23807,2.50213 l 8.719866,17.84063 0.29798,0.0814 7.74144,-18.37212 c 0.2688,-0.74034 0.22733,-1.26566 -0.11827,-1.57439 -0.34714,-0.30105 -0.59136,-0.47922 -1.48839,-0.51609 l -0.72652,-0.037 c -0.0891,0 -0.17357,-0.0322 -0.25498,-0.0922 -0.0799,-0.0569 -0.12135,-0.13208 -0.12135,-0.2227 v -0.76492 l 0.1106,-0.0782 c 2.18112,0 8.74599,0 8.74599,0 l 0.0891,0.0782 v 0.76492 c 0,0.20737 -0.11826,0.3118 -0.35175,0.3118 -1.14584,0.0507 -1.99525,0.29952 -2.54515,0.74343 -0.55141,0.44696 -0.9815,1.0629 -1.29023,1.86317 0,0 -7.11936,16.29543 -9.55546,21.71136 -0.93235,1.77562 -1.849336,1.61279 -2.655736,-0.0507 -1.70342,-3.50812 -6.50034,-14.15106 -6.50034,-14.15106 l -2.91533,-5.72929 z"
       inkscape:export-filename="/Users/raheelsayeed/Documents/CODE/IOS7/Excerpts/Excerpts/images/test/wiki@2x.png"
       inkscape:export-xdpi="134"
       inkscape:export-ydpi="134"
       style="fill:#f2464f;opacity:1;fill-opacity:1"
       clip-path="url(#clipPath4017)" />
    <path
       inkscape:connector-curvature="0"
       id="path2999"
       d="m -56.404964,614.53684 c 0,0 -4.919796,-0.0154 -7.110136,0 l -0.10905,0.0782 v 0.76186 c 0,0.0936 0.0399,0.1674 0.11981,0.22426 0.0814,0.0598 0.16435,0.0906 0.25344,0.0906 l 0.35175,0.0384 c 0.89549,0.037 1.30713,0.27186 1.43001,0.41933 0.21351,0.26112 0.31949,0.54373 -0.19814,1.67271 l -9.18529,18.31986 -0.24115,-0.0629 c 0,0 -6.57869,-13.87162 -8.48333,-18.51188 -0.19814,-0.48076 -0.28723,-0.8371 -0.28723,-1.05676 0,-0.47154 0.42547,-0.72653 1.27642,-0.76184 l 0.99225,-0.0415 c 0.26266,0 0.39629,-0.10141 0.39629,-0.31182 v -0.76186 l -0.0891,-0.0782 c 0,0 -7.87968,-0.009 -9.50784,0 l -0.0891,0.0782 v 0.80024 c 0,0.14439 0.18279,0.23347 0.54989,0.2734 0.99994,0.0538 1.65735,0.21351 1.97376,0.47924 0.31488,0.2688 0.64819,0.94771 1.09056,2.006 2.39155,5.74467 7.47264,15.99591 9.94714,21.83425 0.7127,1.59438 1.60819,1.84167 2.69568,-0.0492 1.88314,-3.49284 6.9888,-14.15885 6.9888,-14.15885 l 4.02125,-7.52024 c 0.468476,-0.79411 0.920056,-1.50222 1.148926,-1.83246 0.41932,-0.60364 0.65433,-0.7173 1.80019,-0.77106 0.23347,0 0.35174,-0.10449 0.35174,-0.31488 v -0.76187 l -0.0875,-0.0814 z"
       inkscape:export-filename="/Users/raheelsayeed/Documents/CODE/IOS7/Excerpts/Excerpts/images/test/wiki@2x.png"
       inkscape:export-xdpi="134"
       inkscape:export-ydpi="134"
       style="fill:#f2464f;opacity:1;fill-opacity:1"
       clip-path="url(#clipPath4013)" />
    <path
       inkscape:connector-curvature="0"
       style="fill:#f2464f;opacity:1;fill-opacity:1"
       id="path3001"
       d="m -66.1094,632.05031 c -0.0307,0.10141 0.28876,0.45007 0.3886,0.4808 l 0.23808,-0.15056 c 0.0983,0.0307 0.31181,-0.0631 0.34253,-0.16127 l 0.0415,-0.40549 -0.42854,-2.00296 c -0.0784,-0.10282 -0.13825,-0.0275 -0.16435,0.066 l -0.41779,2.17344 z"
       inkscape:export-filename="/Users/raheelsayeed/Documents/CODE/IOS7/Excerpts/Excerpts/images/test/wiki@2x.png"
       inkscape:export-xdpi="134"
       inkscape:export-ydpi="134"
       clip-path="url(#clipPath4009)" />
    <path
       inkscape:connector-curvature="0"
       id="path3003"
       d="m 202.76009,862.12061 c 0,0 -1.468,-2.984 -1.968,-3.976 -3.336,-6.612 -3.264,-6.964 -6.636,-7.408 -0.944,-0.124 -1.432,-0.244 -1.432,-0.712 v -2.092 l 0.284,-0.204 c 6.092,-0.008 19.648,-0.008 19.648,-0.008 l 0.52,0.172 v 2.084 c 0,0.476 -0.34,0.72 -1.032,0.72 l -1.424,0.204 c -3.6,0.28 -3.012,1.752 -0.62,6.516 l 22.708,46.46 0.776,0.212 20.16,-47.844 c 0.7,-1.928 0.592,-3.296 -0.308,-4.1 -0.904,-0.784 -1.54,-1.248 -3.876,-1.344 l -1.892,-0.096 c -0.232,0 -0.452,-0.084 -0.664,-0.24 -0.208,-0.148 -0.316,-0.344 -0.316,-0.58 v -1.992 l 0.288,-0.204 c 5.68,0 22.776,0 22.776,0 l 0.232,0.204 v 1.992 c 0,0.54 -0.308,0.812 -0.916,0.812 -2.984,0.132 -5.196,0.78 -6.628,1.936 -1.436,1.164 -2.556,2.768 -3.36,4.852 0,0 -18.54,42.436 -24.884,56.54 -2.428,4.624 -4.816,4.2 -6.916,-0.132 -4.436,-9.136 -16.928,-36.852 -16.928,-36.852 l -7.592,-14.92 z" />
    <path
       inkscape:connector-curvature="0"
       id="path3005"
       d="m 239.14409,847.69661 c 0,0 -12.812,-0.04 -18.516,0 l -0.284,0.204 v 1.984 c 0,0.244 0.104,0.436 0.312,0.584 0.212,0.156 0.428,0.236 0.66,0.236 l 0.916,0.1 c 2.332,0.096 3.404,0.708 3.724,1.092 0.556,0.68 0.832,1.416 -0.516,4.356 l -23.92,47.708 -0.628,-0.164 c 0,0 -17.132,-36.124 -22.092,-48.208 -0.516,-1.252 -0.748,-2.18 -0.748,-2.752 0,-1.228 1.108,-1.892 3.324,-1.984 l 2.584,-0.108 c 0.684,0 1.032,-0.264 1.032,-0.812 v -1.984 l -0.232,-0.204 c 0,0 -20.52,-0.024 -24.76,0 l -0.232,0.204 v 2.084 c 0,0.376 0.476,0.608 1.432,0.712 2.604,0.14 4.316,0.556 5.14,1.248 0.82,0.7 1.688,2.468 2.84,5.224 6.228,14.96 19.46,41.656 25.904,56.86 1.856,4.152 4.188,4.796 7.02,-0.128 4.904,-9.096 18.2,-36.872 18.2,-36.872 l 10.472,-19.584 c 1.22,-2.068 2.396,-3.912 2.992,-4.772 1.092,-1.572 1.704,-1.868 4.688,-2.008 0.608,0 0.916,-0.272 0.916,-0.82 v -1.984 l -0.228,-0.212 z" />
    <path
       inkscape:connector-curvature="0"
       style="fill:#ffffff"
       id="path3007"
       d="m 213.87209,893.30461 c -0.08,0.264 0.752,1.172 1.012,1.252 l 0.62,-0.392 c 0.256,0.08 0.812,-0.164 0.892,-0.42 l 0.108,-1.056 -1.116,-5.216 c -0.204,-0.268 -0.36,-0.072 -0.428,0.172 l -1.088,5.66 z" />
    <path
       sodipodi:type="arc"
       style="fill:none;stroke:#000000;stroke-width:3.18892145;stroke-linecap:butt;stroke-linejoin:miter;stroke-miterlimit:4;stroke-opacity:1;stroke-dasharray:none"
       id="path3009"
       sodipodi:cx="-184.65909"
       sodipodi:cy="105.59659"
       sodipodi:rx="109.375"
       sodipodi:ry="102.98296"
       d="m -75.284088,105.59659 c 0,56.87592 -48.968852,102.98296 -109.375002,102.98296 -60.40614,0 -109.375,-46.10704 -109.375,-102.98296 0,-56.875922 48.96886,-102.9829654 109.375,-102.9829654 60.40615,0 109.375002,46.1070434 109.375002,102.9829654 z"
       transform="matrix(0.61679316,-0.13037122,0.13185462,0.60985406,287.94211,937.42837)" />
    <path
       sodipodi:type="arc"
       style="fill:#280b0b;fill-opacity:0.61333337;stroke:#cccccc;stroke-width:1.99984944;stroke-miterlimit:4;stroke-opacity:1;stroke-dasharray:none"
       id="path3781"
       sodipodi:cx="-329.54544"
       sodipodi:cy="82.159088"
       sodipodi:rx="46.875"
       sodipodi:ry="45.454544"
       d="m -282.67044,82.159088 a 46.875,45.454544 0 1 1 -93.75,0 46.875,45.454544 0 1 1 93.75,0 z"
       transform="matrix(0.66819091,0,0,0.6890719,150.25154,565.28743)"
       inkscape:export-filename="/Users/raheelsayeed/Documents/CODE/IOS7/Excerpts/Excerpts/images/test/wiki-32@2x.png"
       inkscape:export-xdpi="90"
       inkscape:export-ydpi="90" />
    <rect
       style="fill:#b3b3b3;fill-opacity:0;stroke:none"
       id="rect3797"
       width="41.726135"
       height="37.662357"
       x="-128.20624"
       y="647.82031"
       ry="0"
       inkscape:export-filename="/Users/raheelsayeed/Documents/CODE/IOS7/Excerpts/Excerpts/images/test/wiki@2x.png"
       inkscape:export-xdpi="134"
       inkscape:export-ydpi="134" />
    <path
       id="path4043"
       d="m 35.6623,728.63259 c 0,-3.02455 -2.677273,-5.45834 -6.023497,-5.45834 H 1.4826965 c -3.293412,0 -5.979487,2.43379 -5.979487,5.45834 v 14.63737 c 0,3.02455 2.677273,5.45833 5.979487,5.45833 H 29.637336 c 3.335955,0 6.023497,-2.43378 6.023497,-5.45833 v -14.63737 z m -24.095455,13.49582 v -13.75054 l 11.46753,6.87461 -11.46753,6.87593 z"
       inkscape:connector-curvature="0"
       style="fill:#ff5555"
       inkscape:export-filename="/Users/raheelsayeed/Documents/CODE/IOS7/Excerpts/Excerpts/images/test/ytube-32@2x.png"
       inkscape:export-xdpi="143.42999"
       inkscape:export-ydpi="143.42999" />
    <path
       inkscape:export-ydpi="90"
       inkscape:export-xdpi="90"
       inkscape:export-filename="/Users/raheelsayeed/Documents/CODE/IOS7/Excerpts/Excerpts/images/test/ytube-32@2x.png"
       transform="matrix(0.66819091,0,0,0.6890719,110.45168,657.27841)"
       d="m -282.67044,82.159088 a 46.875,45.454544 0 1 1 -93.75,0 46.875,45.454544 0 1 1 93.75,0 z"
       sodipodi:ry="45.454544"
       sodipodi:rx="46.875"
       sodipodi:cy="82.159088"
       sodipodi:cx="-329.54544"
       id="path4052"
       style="fill:#b3b3b3;fill-opacity:0;stroke:#b3b3b3;stroke-width:1.99984944;stroke-miterlimit:4;stroke-opacity:0.71111115;stroke-dasharray:none"
       sodipodi:type="arc" />
    <path
       style="fill:#f2464f;fill-opacity:1"
       inkscape:export-ydpi="134"
       inkscape:export-xdpi="134"
       inkscape:export-filename="/Users/raheelsayeed/Documents/CODE/IOS7/Excerpts/Excerpts/images/test/wiki@2x.png"
       d="m -74.265498,615.1259 c 0,0 -0.56372,-1.14582 -0.75572,-1.52677 -1.28102,-2.539 -1.25337,-2.67416 -2.54822,-2.84465 -0.3625,-0.0475 -0.54989,-0.0936 -0.54989,-0.27342 v -0.80333 l 0.10906,-0.0782 c 2.33932,-0.004 7.54483,-0.004 7.54483,-0.004 l 0.19968,0.066 v 0.80027 c 0,0.18278 -0.13056,0.27647 -0.39629,0.27647 l -0.54682,0.0782 c -1.3824,0.10756 -1.1566,0.67276 -0.23807,2.50213 l 8.719867,17.84063 0.29798,0.0814 7.74144,-18.37212 c 0.2688,-0.74034 0.22733,-1.26566 -0.11827,-1.57439 -0.34714,-0.30105 -0.59136,-0.47922 -1.48839,-0.51609 l -0.72652,-0.037 c -0.0891,0 -0.17357,-0.0322 -0.25498,-0.0922 -0.0799,-0.0569 -0.12135,-0.13208 -0.12135,-0.2227 v -0.76492 l 0.1106,-0.0782 c 2.18112,0 8.74599,0 8.74599,0 l 0.0891,0.0782 v 0.76492 c 0,0.20737 -0.11826,0.3118 -0.35175,0.3118 -1.14584,0.0507 -1.99525,0.29952 -2.54515,0.74343 -0.55141,0.44696 -0.9815,1.0629 -1.29023,1.86317 0,0 -7.11936,16.29543 -9.55546,21.71136 -0.93235,1.77562 -1.849336,1.61279 -2.655736,-0.0507 -1.70342,-3.50812 -6.500341,-14.15106 -6.500341,-14.15106 l -2.91533,-5.72929 z"
       id="path3786"
       inkscape:connector-curvature="0"
       clip-path="url(#clipPath4005)" />
    <path
       style="fill:#f2464f;fill-opacity:1"
       inkscape:export-ydpi="134"
       inkscape:export-xdpi="134"
       inkscape:export-filename="/Users/raheelsayeed/Documents/CODE/IOS7/Excerpts/Excerpts/images/test/wiki@2x.png"
       d="m -60.294051,609.58709 c 0,0 -4.919796,-0.0154 -7.110136,0 l -0.10905,0.0782 v 0.76186 c 0,0.0936 0.0399,0.1674 0.11981,0.22426 0.0814,0.0598 0.16435,0.0906 0.25344,0.0906 l 0.35175,0.0384 c 0.89549,0.037 1.30713,0.27186 1.43001,0.41933 0.21351,0.26112 0.31949,0.54373 -0.19814,1.67271 l -9.185291,18.31986 -0.24115,-0.0629 c 0,0 -6.57869,-13.87162 -8.48333,-18.51188 -0.19814,-0.48076 -0.28723,-0.8371 -0.28723,-1.05676 0,-0.47154 0.42547,-0.72653 1.27642,-0.76184 l 0.99225,-0.0415 c 0.26266,0 0.39629,-0.10141 0.39629,-0.31182 v -0.76186 l -0.0891,-0.0782 c 0,0 -7.87968,-0.009 -9.50784,0 l -0.0891,0.0782 v 0.80024 c 0,0.14439 0.18279,0.23347 0.54989,0.2734 0.99994,0.0538 1.65735,0.21351 1.97376,0.47924 0.31488,0.2688 0.64819,0.94771 1.09056,2.006 2.39155,5.74467 7.47264,15.99591 9.94714,21.83425 0.7127,1.59438 1.60819,1.84167 2.69568,-0.0492 1.88314,-3.49284 6.988801,-14.15885 6.988801,-14.15885 l 4.02125,-7.52024 c 0.468476,-0.79411 0.920056,-1.50222 1.148926,-1.83246 0.41932,-0.60364 0.65433,-0.7173 1.80019,-0.77106 0.23347,0 0.35174,-0.10449 0.35174,-0.31488 v -0.76187 l -0.0875,-0.0814 z"
       id="path3788"
       inkscape:connector-curvature="0"
       clip-path="url(#clipPath4001)" />
  </g>
  <path
     sodipodi:type="arc"
     style="fill:#ff0000;fill-rule:evenodd;stroke:#000000;stroke-width:1px;stroke-linecap:butt;stroke-linejoin:miter;stroke-opacity:1"
     id="path2995"
     sodipodi:cx="-142.75568"
     sodipodi:cy="-40.710228"
     sodipodi:rx="63.210228"
     sodipodi:ry="60.36932"
     d="m -79.545448,-40.710228 a 63.210228,60.36932 0 1 1 -126.420452,0 63.210228,60.36932 0 1 1 126.420452,0 z"
     transform="translate(276.98863,268.46591)" />
</svg>
